<?xml version="1.0" encoding="UTF-8" standalone="no"?>
<!DOCTYPE svg PUBLIC "-//W3C//DTD SVG 1.1//EN"
 "http://www.w3.org/Graphics/SVG/1.1/DTD/svg11.dtd">
<!-- Generated by graphviz version 2.43.0 (0)
 -->
<!-- Title: G Pages: 1 -->
<svg width="1971pt" height="573pt"
 viewBox="0.00 0.00 1971.13 572.90" xmlns="http://www.w3.org/2000/svg" xmlns:xlink="http://www.w3.org/1999/xlink">
<g id="graph0" class="graph" transform="scale(1 1) rotate(0) translate(4 568.9)">
<title>G</title><style>.edge>path:hover{stroke-width:8}</style>
<polygon fill="white" stroke="transparent" points="-4,4 -4,-568.9 1967.13,-568.9 1967.13,4 -4,4"/>
<!-- bidexdiffuser_agents_agent -->
<g id="node1" class="node">
<title>bidexdiffuser_agents_agent</title><style>.edge>path:hover{stroke-width:8}</style>
<ellipse fill="#b34c4c" stroke="black" cx="761.73" cy="-253.96" rx="59.29" ry="28.98"/>
<text text-anchor="middle" x="761.73" y="-262.46" font-family="Helvetica,sans-Serif" font-size="10.00" fill="#ffffff">bidexdiffuser.</text>
<text text-anchor="middle" x="761.73" y="-251.46" font-family="Helvetica,sans-Serif" font-size="10.00" fill="#ffffff">agents.</text>
<text text-anchor="middle" x="761.73" y="-240.46" font-family="Helvetica,sans-Serif" font-size="10.00" fill="#ffffff">agent</text>
</g>
<!-- bidexdiffuser_agents_dp_agent -->
<g id="node2" class="node">
<title>bidexdiffuser_agents_dp_agent</title><style>.edge>path:hover{stroke-width:8}</style>
<ellipse fill="#a44646" stroke="black" cx="343.73" cy="-159.97" rx="59.29" ry="28.98"/>
<text text-anchor="middle" x="343.73" y="-168.47" font-family="Helvetica,sans-Serif" font-size="10.00" fill="#ffffff">bidexdiffuser.</text>
<text text-anchor="middle" x="343.73" y="-157.47" font-family="Helvetica,sans-Serif" font-size="10.00" fill="#ffffff">agents.</text>
<text text-anchor="middle" x="343.73" y="-146.47" font-family="Helvetica,sans-Serif" font-size="10.00" fill="#ffffff">dp_agent</text>
</g>
<!-- bidexdiffuser_agents_dp_agent_zmq -->
<g id="node3" class="node">
<title>bidexdiffuser_agents_dp_agent_zmq</title><style>.edge>path:hover{stroke-width:8}</style>
<ellipse fill="#a44646" stroke="black" cx="566.73" cy="-159.97" rx="62.45" ry="28.98"/>
<text text-anchor="middle" x="566.73" y="-168.47" font-family="Helvetica,sans-Serif" font-size="10.00" fill="#ffffff">bidexdiffuser.</text>
<text text-anchor="middle" x="566.73" y="-157.47" font-family="Helvetica,sans-Serif" font-size="10.00" fill="#ffffff">agents.</text>
<text text-anchor="middle" x="566.73" y="-146.47" font-family="Helvetica,sans-Serif" font-size="10.00" fill="#ffffff">dp_agent_zmq</text>
</g>
<!-- bidexdiffuser_agents_quest_agent -->
<g id="node4" class="node">
<title>bidexdiffuser_agents_quest_agent</title><style>.edge>path:hover{stroke-width:8}</style>
<ellipse fill="#793434" stroke="black" cx="476.73" cy="-28.99" rx="59.29" ry="28.98"/>
<text text-anchor="middle" x="476.73" y="-37.49" font-family="Helvetica,sans-Serif" font-size="10.00" fill="#ffffff">bidexdiffuser.</text>
<text text-anchor="middle" x="476.73" y="-26.49" font-family="Helvetica,sans-Serif" font-size="10.00" fill="#ffffff">agents.</text>
<text text-anchor="middle" x="476.73" y="-15.49" font-family="Helvetica,sans-Serif" font-size="10.00" fill="#ffffff">quest_agent</text>
</g>
<!-- bidexdiffuser_agents_quest_agent_eef -->
<g id="node5" class="node">
<title>bidexdiffuser_agents_quest_agent_eef</title><style>.edge>path:hover{stroke-width:8}</style>
<ellipse fill="#ac4949" stroke="black" cx="716.73" cy="-159.97" rx="69.09" ry="28.98"/>
<text text-anchor="middle" x="716.73" y="-168.47" font-family="Helvetica,sans-Serif" font-size="10.00" fill="#ffffff">bidexdiffuser.</text>
<text text-anchor="middle" x="716.73" y="-157.47" font-family="Helvetica,sans-Serif" font-size="10.00" fill="#ffffff">agents.</text>
<text text-anchor="middle" x="716.73" y="-146.47" font-family="Helvetica,sans-Serif" font-size="10.00" fill="#ffffff">quest_agent_eef</text>
</g>
<!-- bidexdiffuser_camera_node -->
<g id="node6" class="node">
<title>bidexdiffuser_camera_node</title><style>.edge>path:hover{stroke-width:8}</style>
<ellipse fill="#ac4949" stroke="black" cx="1460.73" cy="-340.16" rx="59.29" ry="21.43"/>
<text text-anchor="middle" x="1460.73" y="-343.16" font-family="Helvetica,sans-Serif" font-size="10.00" fill="#ffffff">bidexdiffuser.</text>
<text text-anchor="middle" x="1460.73" y="-332.16" font-family="Helvetica,sans-Serif" font-size="10.00" fill="#ffffff">camera_node</text>
</g>
<!-- bidexdiffuser_env -->
<g id="node7" class="node">
<title>bidexdiffuser_env</title><style>.edge>path:hover{stroke-width:8}</style>
<ellipse fill="#a44646" stroke="black" cx="1058.73" cy="-253.96" rx="59.29" ry="21.43"/>
<text text-anchor="middle" x="1058.73" y="-256.96" font-family="Helvetica,sans-Serif" font-size="10.00" fill="#ffffff">bidexdiffuser.</text>
<text text-anchor="middle" x="1058.73" y="-245.96" font-family="Helvetica,sans-Serif" font-size="10.00" fill="#ffffff">env</text>
</g>
<!-- bidexdiffuser_inference_node -->
<g id="node8" class="node">
<title>bidexdiffuser_inference_node</title><style>.edge>path:hover{stroke-width:8}</style>
<ellipse fill="#ac4949" stroke="black" cx="1318.73" cy="-340.16" rx="65.11" ry="21.43"/>
<text text-anchor="middle" x="1318.73" y="-343.16" font-family="Helvetica,sans-Serif" font-size="10.00" fill="#ffffff">bidexdiffuser.</text>
<text text-anchor="middle" x="1318.73" y="-332.16" font-family="Helvetica,sans-Serif" font-size="10.00" fill="#ffffff">inference_node</text>
</g>
<!-- bidexdiffuser_launch_inference_nodes -->
<g id="node9" class="node">
<title>bidexdiffuser_launch_inference_nodes</title><style>.edge>path:hover{stroke-width:8}</style>
<ellipse fill="#b34c4c" stroke="black" cx="1731.73" cy="-253.96" rx="94.51" ry="21.43"/>
<text text-anchor="middle" x="1731.73" y="-256.96" font-family="Helvetica,sans-Serif" font-size="10.00" fill="#ffffff">bidexdiffuser.</text>
<text text-anchor="middle" x="1731.73" y="-245.96" font-family="Helvetica,sans-Serif" font-size="10.00" fill="#ffffff">launch_inference_nodes</text>
</g>
<!-- bidexdiffuser_launch_nodes -->
<g id="node10" class="node">
<title>bidexdiffuser_launch_nodes</title><style>.edge>path:hover{stroke-width:8}</style>
<ellipse fill="#b34c4c" stroke="black" cx="1903.73" cy="-253.96" rx="59.29" ry="21.43"/>
<text text-anchor="middle" x="1903.73" y="-256.96" font-family="Helvetica,sans-Serif" font-size="10.00" fill="#ffffff">bidexdiffuser.</text>
<text text-anchor="middle" x="1903.73" y="-245.96" font-family="Helvetica,sans-Serif" font-size="10.00" fill="#ffffff">launch_nodes</text>
</g>
<!-- bidexdiffuser_robot_node -->
<g id="node11" class="node">
<title>bidexdiffuser_robot_node</title><style>.edge>path:hover{stroke-width:8}</style>
<ellipse fill="#ac4949" stroke="black" cx="1597.73" cy="-340.16" rx="59.29" ry="21.43"/>
<text text-anchor="middle" x="1597.73" y="-343.16" font-family="Helvetica,sans-Serif" font-size="10.00" fill="#ffffff">bidexdiffuser.</text>
<text text-anchor="middle" x="1597.73" y="-332.16" font-family="Helvetica,sans-Serif" font-size="10.00" fill="#ffffff">robot_node</text>
</g>
<!-- bidexdiffuser_run_env -->
<g id="node12" class="node">
<title>bidexdiffuser_run_env</title><style>.edge>path:hover{stroke-width:8}</style>
<ellipse fill="#8f3d3d" stroke="black" cx="1559.73" cy="-253.96" rx="59.29" ry="21.43"/>
<text text-anchor="middle" x="1559.73" y="-256.96" font-family="Helvetica,sans-Serif" font-size="10.00" fill="#ffffff">bidexdiffuser.</text>
<text text-anchor="middle" x="1559.73" y="-245.96" font-family="Helvetica,sans-Serif" font-size="10.00" fill="#ffffff">run_env</text>
</g>
<!-- bidexdiffuser_run_openloop -->
<g id="node13" class="node">
<title>bidexdiffuser_run_openloop</title><style>.edge>path:hover{stroke-width:8}</style>
<ellipse fill="#a44646" stroke="black" cx="1195.73" cy="-253.96" rx="59.29" ry="21.43"/>
<text text-anchor="middle" x="1195.73" y="-256.96" font-family="Helvetica,sans-Serif" font-size="10.00" fill="#ffffff">bidexdiffuser.</text>
<text text-anchor="middle" x="1195.73" y="-245.96" font-family="Helvetica,sans-Serif" font-size="10.00" fill="#ffffff">run_openloop</text>
</g>
<!-- bidexdiffuser_test_dp_agent -->
<g id="node14" class="node">
<title>bidexdiffuser_test_dp_agent</title><style>.edge>path:hover{stroke-width:8}</style>
<ellipse fill="#ac4949" stroke="black" cx="559.73" cy="-340.16" rx="60.62" ry="21.43"/>
<text text-anchor="middle" x="559.73" y="-343.16" font-family="Helvetica,sans-Serif" font-size="10.00" fill="#ffffff">bidexdiffuser.</text>
<text text-anchor="middle" x="559.73" y="-332.16" font-family="Helvetica,sans-Serif" font-size="10.00" fill="#ffffff">test_dp_agent</text>
</g>
<!-- bidexdiffuser_test_dp_agent_zmq -->
<g id="node15" class="node">
<title>bidexdiffuser_test_dp_agent_zmq</title><style>.edge>path:hover{stroke-width:8}</style>
<ellipse fill="#ac4949" stroke="black" cx="401.73" cy="-340.16" rx="79.39" ry="21.43"/>
<text text-anchor="middle" x="401.73" y="-343.16" font-family="Helvetica,sans-Serif" font-size="10.00" fill="#ffffff">bidexdiffuser.</text>
<text text-anchor="middle" x="401.73" y="-332.16" font-family="Helvetica,sans-Serif" font-size="10.00" fill="#ffffff">test_dp_agent_zmq</text>
</g>
<!-- cv2 -->
<g id="node16" class="node">
<title>cv2</title><style>.edge>path:hover{stroke-width:8}</style>
<ellipse fill="#c08540" stroke="black" cx="1142.73" cy="-426.37" rx="27" ry="18"/>
<text text-anchor="middle" x="1142.73" y="-423.87" font-family="Helvetica,sans-Serif" font-size="10.00" fill="#000000">cv2</text>
</g>
<!-- cv2&#45;&gt;bidexdiffuser_env -->
<g id="edge1" class="edge">
<title>cv2&#45;&gt;bidexdiffuser_env</title><style>.edge>path:hover{stroke-width:8}</style>
<path fill="none" stroke="black" d="M1134.68,-409.03C1120.47,-380.2 1090.77,-319.95 1073.01,-283.93"/>
<polygon fill="#c08540" stroke="black" points="1076.12,-282.31 1068.56,-274.89 1069.84,-285.41 1076.12,-282.31"/>
</g>
<!-- cv2&#45;&gt;bidexdiffuser_run_env -->
<g id="edge2" class="edge">
<title>cv2&#45;&gt;bidexdiffuser_run_env</title><style>.edge>path:hover{stroke-width:8}</style>
<path fill="none" stroke="black" d="M1158.48,-411.39C1176.01,-395.39 1204.66,-367.94 1225.73,-341.16"/>
<path fill="none" stroke="black" d="M1225.73,-339.16C1233.36,-329.47 1233.96,-324.95 1244.73,-318.95 1321.82,-275.99 1423.86,-261.69 1490.62,-257.03"/>
<polygon fill="#c08540" stroke="black" points="1490.86,-260.52 1500.61,-256.39 1490.41,-253.54 1490.86,-260.52"/>
</g>
<!-- dm_control -->
<g id="node17" class="node">
<title>dm_control</title><style>.edge>path:hover{stroke-width:8}</style>
<ellipse fill="#dff316" stroke="black" cx="364.73" cy="-253.96" rx="41.59" ry="18"/>
<text text-anchor="middle" x="364.73" y="-251.46" font-family="Helvetica,sans-Serif" font-size="10.00" fill="#000000">dm_control</text>
</g>
<!-- dm_control&#45;&gt;bidexdiffuser_agents_quest_agent -->
<g id="edge3" class="edge">
<title>dm_control&#45;&gt;bidexdiffuser_agents_quest_agent</title><style>.edge>path:hover{stroke-width:8}</style>
<path fill="none" stroke="black" d="M389.1,-239.11C422.12,-219.49 476.97,-183.49 476.73,-160.97"/>
<path fill="none" stroke="black" d="M476.73,-158.97C476.43,-130.54 489.74,-120.27 476.73,-94.98"/>
</g>
<!-- dm_control_mjcf -->
<g id="node18" class="node">
<title>dm_control_mjcf</title><style>.edge>path:hover{stroke-width:8}</style>
<ellipse fill="#adb83d" stroke="black" cx="476.73" cy="-253.96" rx="52.15" ry="21.43"/>
<text text-anchor="middle" x="476.73" y="-256.96" font-family="Helvetica,sans-Serif" font-size="10.00" fill="#000000">dm_control.</text>
<text text-anchor="middle" x="476.73" y="-245.96" font-family="Helvetica,sans-Serif" font-size="10.00" fill="#000000">mjcf</text>
</g>
<!-- dm_control_mjcf&#45;&gt;bidexdiffuser_agents_quest_agent -->
<g id="edge4" class="edge">
<title>dm_control_mjcf&#45;&gt;bidexdiffuser_agents_quest_agent</title><style>.edge>path:hover{stroke-width:8}</style>
<path fill="none" stroke="black" d="M476.85,-232.5C476.94,-213.86 476.99,-185.57 476.73,-160.97"/>
</g>
<!-- dm_control_mujoco -->
<g id="node19" class="node">
<title>dm_control_mujoco</title><style>.edge>path:hover{stroke-width:8}</style>
<ellipse fill="#cbdd18" stroke="black" cx="298.73" cy="-426.37" rx="52.15" ry="21.43"/>
<text text-anchor="middle" x="298.73" y="-429.37" font-family="Helvetica,sans-Serif" font-size="10.00" fill="#000000">dm_control.</text>
<text text-anchor="middle" x="298.73" y="-418.37" font-family="Helvetica,sans-Serif" font-size="10.00" fill="#000000">mujoco</text>
</g>
<!-- dm_control_mujoco&#45;&gt;bidexdiffuser_agents_quest_agent -->
<g id="edge5" class="edge">
<title>dm_control_mujoco&#45;&gt;bidexdiffuser_agents_quest_agent</title><style>.edge>path:hover{stroke-width:8}</style>
<path fill="none" stroke="black" d="M256.73,-339.16C247.16,-321.83 239.4,-170.55 256.73,-160.97"/>
</g>
<!-- dm_control_utils_inverse_kinematics -->
<g id="node23" class="node">
<title>dm_control_utils_inverse_kinematics</title><style>.edge>path:hover{stroke-width:8}</style>
<ellipse fill="#8e9640" stroke="black" cx="149.73" cy="-253.96" rx="79.39" ry="28.98"/>
<text text-anchor="middle" x="149.73" y="-262.46" font-family="Helvetica,sans-Serif" font-size="10.00" fill="#000000">dm_control.</text>
<text text-anchor="middle" x="149.73" y="-251.46" font-family="Helvetica,sans-Serif" font-size="10.00" fill="#000000">utils.</text>
<text text-anchor="middle" x="149.73" y="-240.46" font-family="Helvetica,sans-Serif" font-size="10.00" fill="#000000">inverse_kinematics</text>
</g>
<!-- dm_control_mujoco&#45;&gt;dm_control_utils_inverse_kinematics -->
<g id="edge6" class="edge">
<title>dm_control_mujoco&#45;&gt;dm_control_utils_inverse_kinematics</title><style>.edge>path:hover{stroke-width:8}</style>
<path fill="none" stroke="black" d="M289.35,-405.39C281.12,-388.17 268.65,-362.76 256.73,-341.16"/>
<path fill="none" stroke="black" d="M256.73,-339.16C244.18,-316.43 222.69,-297.7 202.26,-283.72"/>
<polygon fill="#cbdd18" stroke="black" points="204.17,-280.79 193.89,-278.22 200.32,-286.64 204.17,-280.79"/>
</g>
<!-- dm_control_mujoco_wrapper -->
<g id="node20" class="node">
<title>dm_control_mujoco_wrapper</title><style>.edge>path:hover{stroke-width:8}</style>
<ellipse fill="#b1bf21" stroke="black" cx="84.73" cy="-426.37" rx="52.15" ry="28.98"/>
<text text-anchor="middle" x="84.73" y="-434.87" font-family="Helvetica,sans-Serif" font-size="10.00" fill="#000000">dm_control.</text>
<text text-anchor="middle" x="84.73" y="-423.87" font-family="Helvetica,sans-Serif" font-size="10.00" fill="#000000">mujoco.</text>
<text text-anchor="middle" x="84.73" y="-412.87" font-family="Helvetica,sans-Serif" font-size="10.00" fill="#000000">wrapper</text>
</g>
<!-- dm_control_mujoco_wrapper&#45;&gt;bidexdiffuser_agents_quest_agent -->
<g id="edge7" class="edge">
<title>dm_control_mujoco_wrapper&#45;&gt;bidexdiffuser_agents_quest_agent</title><style>.edge>path:hover{stroke-width:8}</style>
<path fill="none" stroke="black" d="M63.44,-399.66C52.49,-383.75 41.65,-362.37 42.73,-341.16"/>
<path fill="none" stroke="black" d="M42.73,-339.16C44.64,-301.79 19,-283.89 42.73,-254.96"/>
</g>
<!-- dm_control_mujoco_wrapper&#45;&gt;dm_control_utils_inverse_kinematics -->
<g id="edge8" class="edge">
<title>dm_control_mujoco_wrapper&#45;&gt;dm_control_utils_inverse_kinematics</title><style>.edge>path:hover{stroke-width:8}</style>
<path fill="none" stroke="black" d="M42.73,-339.16C44.06,-313.11 64.13,-293.87 86.53,-280.41"/>
<polygon fill="#b1bf21" stroke="black" points="88.53,-283.3 95.53,-275.36 85.1,-277.2 88.53,-283.3"/>
</g>
<!-- dm_control_mujoco_wrapper_mjbindings -->
<g id="node21" class="node">
<title>dm_control_mujoco_wrapper_mjbindings</title><style>.edge>path:hover{stroke-width:8}</style>
<ellipse fill="#b1bf21" stroke="black" cx="84.73" cy="-528.13" rx="52.15" ry="36.54"/>
<text text-anchor="middle" x="84.73" y="-542.13" font-family="Helvetica,sans-Serif" font-size="10.00" fill="#000000">dm_control.</text>
<text text-anchor="middle" x="84.73" y="-531.13" font-family="Helvetica,sans-Serif" font-size="10.00" fill="#000000">mujoco.</text>
<text text-anchor="middle" x="84.73" y="-520.13" font-family="Helvetica,sans-Serif" font-size="10.00" fill="#000000">wrapper.</text>
<text text-anchor="middle" x="84.73" y="-509.13" font-family="Helvetica,sans-Serif" font-size="10.00" fill="#000000">mjbindings</text>
</g>
<!-- dm_control_mujoco_wrapper_mjbindings&#45;&gt;bidexdiffuser_agents_quest_agent -->
<g id="edge9" class="edge">
<title>dm_control_mujoco_wrapper_mjbindings&#45;&gt;bidexdiffuser_agents_quest_agent</title><style>.edge>path:hover{stroke-width:8}</style>
<path fill="none" stroke="black" d="M52.6,-498.84C41.2,-486.73 29.71,-471.63 23.73,-455.36 -7.13,-371.38 -14.01,-324.13 42.73,-254.96"/>
<path fill="none" stroke="black" d="M42.73,-252.96C52.33,-241.38 49.72,-234.01 61.73,-224.97 134.58,-170.07 176.6,-204.56 256.73,-160.97"/>
<path fill="none" stroke="black" d="M256.73,-158.97C269.94,-151.79 263.12,-139.17 275.73,-130.98 351.85,-81.56 518.25,-175.68 476.73,-94.98"/>
<path fill="none" stroke="black" d="M476.73,-93.98C472.71,-86.17 471.18,-77.08 470.97,-68.25"/>
<polygon fill="#b1bf21" stroke="black" points="474.47,-68.19 471.27,-58.09 467.48,-67.98 474.47,-68.19"/>
</g>
<!-- dm_control_mujoco_wrapper_mjbindings&#45;&gt;dm_control_mujoco_wrapper -->
<g id="edge10" class="edge">
<title>dm_control_mujoco_wrapper_mjbindings&#45;&gt;dm_control_mujoco_wrapper</title><style>.edge>path:hover{stroke-width:8}</style>
<path fill="none" stroke="black" d="M84.73,-491.11C84.73,-482.87 84.73,-474.08 84.73,-465.74"/>
<polygon fill="#b1bf21" stroke="black" points="88.23,-465.5 84.73,-455.5 81.23,-465.5 88.23,-465.5"/>
</g>
<!-- dm_control_mujoco_wrapper_mjbindings&#45;&gt;dm_control_utils_inverse_kinematics -->
<g id="edge11" class="edge">
<title>dm_control_mujoco_wrapper_mjbindings&#45;&gt;dm_control_utils_inverse_kinematics</title><style>.edge>path:hover{stroke-width:8}</style>
<path fill="none" stroke="black" d="M133.17,-514.08C175.63,-499.54 229.1,-472 218.73,-427.37"/>
<path fill="none" stroke="black" d="M218.73,-425.37C207.6,-377.48 184.89,-325.53 168.56,-291.74"/>
<polygon fill="#b1bf21" stroke="black" points="171.68,-290.15 164.14,-282.71 165.39,-293.23 171.68,-290.15"/>
</g>
<!-- dm_control_utils -->
<g id="node22" class="node">
<title>dm_control_utils</title><style>.edge>path:hover{stroke-width:8}</style>
<ellipse fill="#adb653" stroke="black" cx="891.73" cy="-253.96" rx="52.15" ry="21.43"/>
<text text-anchor="middle" x="891.73" y="-256.96" font-family="Helvetica,sans-Serif" font-size="10.00" fill="#000000">dm_control.</text>
<text text-anchor="middle" x="891.73" y="-245.96" font-family="Helvetica,sans-Serif" font-size="10.00" fill="#000000">utils</text>
</g>
<!-- dm_control_utils&#45;&gt;bidexdiffuser_agents_quest_agent -->
<g id="edge12" class="edge">
<title>dm_control_utils&#45;&gt;bidexdiffuser_agents_quest_agent</title><style>.edge>path:hover{stroke-width:8}</style>
<path fill="none" stroke="black" d="M923.04,-236.9C952.17,-219.68 988.72,-190.75 971.73,-160.97"/>
<path fill="none" stroke="black" d="M971.73,-158.97C944.25,-110.8 502.1,-144.3 476.73,-94.98"/>
</g>
<!-- dm_control_utils_inverse_kinematics&#45;&gt;bidexdiffuser_agents_quest_agent -->
<g id="edge13" class="edge">
<title>dm_control_utils_inverse_kinematics&#45;&gt;bidexdiffuser_agents_quest_agent</title><style>.edge>path:hover{stroke-width:8}</style>
<path fill="none" stroke="black" d="M174.68,-226.19C195.03,-205.76 225.43,-178.28 256.73,-160.97"/>
</g>
<!-- natsort -->
<g id="node24" class="node">
<title>natsort</title><style>.edge>path:hover{stroke-width:8}</style>
<ellipse fill="#6ec040" stroke="black" cx="1029.73" cy="-426.37" rx="30.04" ry="18"/>
<text text-anchor="middle" x="1029.73" y="-423.87" font-family="Helvetica,sans-Serif" font-size="10.00" fill="#000000">natsort</text>
</g>
<!-- natsort&#45;&gt;bidexdiffuser_env -->
<g id="edge14" class="edge">
<title>natsort&#45;&gt;bidexdiffuser_env</title><style>.edge>path:hover{stroke-width:8}</style>
<path fill="none" stroke="black" d="M1032.62,-408.4C1037.51,-379.67 1047.48,-321.06 1053.59,-285.17"/>
<polygon fill="#6ec040" stroke="black" points="1057.05,-285.7 1055.28,-275.26 1050.15,-284.53 1057.05,-285.7"/>
</g>
<!-- numpy -->
<g id="node25" class="node">
<title>numpy</title><style>.edge>path:hover{stroke-width:8}</style>
<ellipse fill="#06f932" stroke="black" cx="452.73" cy="-528.13" rx="29.37" ry="18"/>
<text text-anchor="middle" x="452.73" y="-525.63" font-family="Helvetica,sans-Serif" font-size="10.00" fill="#000000">numpy</text>
</g>
<!-- numpy&#45;&gt;bidexdiffuser_agents_agent -->
<g id="edge15" class="edge">
<title>numpy&#45;&gt;bidexdiffuser_agents_agent</title><style>.edge>path:hover{stroke-width:8}</style>
<path fill="none" stroke="black" d="M971.73,-339.16C942.89,-278.17 893.32,-308.12 830.73,-282.95 825.98,-281.04 821.05,-279.05 816.1,-277.05"/>
<polygon fill="#06f932" stroke="black" points="817.21,-273.72 806.63,-273.22 814.58,-280.21 817.21,-273.72"/>
</g>
<!-- numpy&#45;&gt;bidexdiffuser_agents_dp_agent -->
<g id="edge16" class="edge">
<title>numpy&#45;&gt;bidexdiffuser_agents_dp_agent</title><style>.edge>path:hover{stroke-width:8}</style>
<path fill="none" stroke="black" d="M648.73,-425.37C663.28,-379.58 664.76,-351.83 629.73,-318.95 519.21,-215.21 350.71,-395.82 294.73,-254.96"/>
</g>
<!-- numpy&#45;&gt;bidexdiffuser_agents_dp_agent_zmq -->
<g id="edge17" class="edge">
<title>numpy&#45;&gt;bidexdiffuser_agents_dp_agent_zmq</title><style>.edge>path:hover{stroke-width:8}</style>
<path fill="none" stroke="black" d="M481.33,-523.07C596.36,-506.05 1016.99,-436.88 971.73,-341.16"/>
<path fill="none" stroke="black" d="M971.73,-339.16C968.94,-213.14 798.69,-352.76 693.73,-282.95 681.21,-274.62 685.65,-265.29 674.73,-254.96"/>
<path fill="none" stroke="black" d="M674.73,-252.96C652.36,-231.79 626.08,-209.36 605.05,-191.95"/>
<polygon fill="#06f932" stroke="black" points="607.21,-189.19 597.26,-185.53 602.75,-194.59 607.21,-189.19"/>
</g>
<!-- numpy&#45;&gt;bidexdiffuser_agents_quest_agent -->
<g id="edge18" class="edge">
<title>numpy&#45;&gt;bidexdiffuser_agents_quest_agent</title><style>.edge>path:hover{stroke-width:8}</style>
<path fill="none" stroke="black" d="M971.73,-339.16C969.98,-259.99 1010.97,-229.76 971.73,-160.97"/>
</g>
<!-- numpy&#45;&gt;bidexdiffuser_agents_quest_agent_eef -->
<g id="edge19" class="edge">
<title>numpy&#45;&gt;bidexdiffuser_agents_quest_agent_eef</title><style>.edge>path:hover{stroke-width:8}</style>
<path fill="none" stroke="black" d="M674.73,-252.96C658.33,-237.44 669.01,-214.29 683.7,-195.1"/>
<polygon fill="#06f932" stroke="black" points="686.58,-197.12 690.18,-187.15 681.15,-192.7 686.58,-197.12"/>
</g>
<!-- numpy&#45;&gt;bidexdiffuser_camera_node -->
<g id="edge20" class="edge">
<title>numpy&#45;&gt;bidexdiffuser_camera_node</title><style>.edge>path:hover{stroke-width:8}</style>
<path fill="none" stroke="black" d="M1304.73,-425.37C1345.94,-406.7 1391.26,-381.71 1422.38,-363.81"/>
<polygon fill="#06f932" stroke="black" points="1424.26,-366.77 1431.16,-358.73 1420.75,-360.71 1424.26,-366.77"/>
</g>
<!-- numpy&#45;&gt;bidexdiffuser_env -->
<g id="edge21" class="edge">
<title>numpy&#45;&gt;bidexdiffuser_env</title><style>.edge>path:hover{stroke-width:8}</style>
<path fill="none" stroke="black" d="M971.73,-339.16C959.34,-312.95 985.55,-290.55 1012.36,-275.45"/>
<polygon fill="#06f932" stroke="black" points="1014.25,-278.41 1021.42,-270.62 1010.95,-272.23 1014.25,-278.41"/>
</g>
<!-- numpy&#45;&gt;bidexdiffuser_inference_node -->
<g id="edge22" class="edge">
<title>numpy&#45;&gt;bidexdiffuser_inference_node</title><style>.edge>path:hover{stroke-width:8}</style>
<path fill="none" stroke="black" d="M1304.73,-425.37C1323.7,-416.78 1326.06,-392.25 1324.33,-371.87"/>
<polygon fill="#06f932" stroke="black" points="1327.78,-371.21 1323.12,-361.69 1320.83,-372.04 1327.78,-371.21"/>
</g>
<!-- numpy&#45;&gt;bidexdiffuser_robot_node -->
<g id="edge23" class="edge">
<title>numpy&#45;&gt;bidexdiffuser_robot_node</title><style>.edge>path:hover{stroke-width:8}</style>
<path fill="none" stroke="black" d="M1304.73,-425.37C1399.05,-382.65 1429.27,-390.15 1528.73,-361.37 1533.55,-359.98 1538.56,-358.52 1543.58,-357.06"/>
<polygon fill="#06f932" stroke="black" points="1544.58,-360.42 1553.2,-354.25 1542.62,-353.7 1544.58,-360.42"/>
</g>
<!-- numpy&#45;&gt;bidexdiffuser_run_env -->
<g id="edge24" class="edge">
<title>numpy&#45;&gt;bidexdiffuser_run_env</title><style>.edge>path:hover{stroke-width:8}</style>
<path fill="none" stroke="black" d="M482.35,-526.98C611.57,-525.94 1125.99,-517.92 1272.73,-455.36 1290.11,-447.95 1287.52,-435.16 1304.73,-427.37"/>
<path fill="none" stroke="black" d="M1304.73,-425.37C1351.48,-404.19 1193.99,-381.48 1225.73,-341.16"/>
</g>
<!-- numpy&#45;&gt;bidexdiffuser_run_openloop -->
<g id="edge25" class="edge">
<title>numpy&#45;&gt;bidexdiffuser_run_openloop</title><style>.edge>path:hover{stroke-width:8}</style>
<path fill="none" stroke="black" d="M482.47,-526.98C591.67,-525.96 969.24,-517.86 1068.73,-455.36 1070.86,-454.02 1143.53,-338.28 1177.97,-283.33"/>
<polygon fill="#06f932" stroke="black" points="1181,-285.08 1183.35,-274.74 1175.07,-281.36 1181,-285.08"/>
</g>
<!-- numpy&#45;&gt;bidexdiffuser_test_dp_agent -->
<g id="edge26" class="edge">
<title>numpy&#45;&gt;bidexdiffuser_test_dp_agent</title><style>.edge>path:hover{stroke-width:8}</style>
<path fill="none" stroke="black" d="M481.88,-524.28C530.97,-517.63 626.93,-495.96 648.73,-427.37"/>
<path fill="none" stroke="black" d="M648.73,-425.37C657.37,-398.17 632.51,-376.35 606.88,-361.74"/>
<polygon fill="#06f932" stroke="black" points="608.31,-358.53 597.84,-356.88 604.99,-364.7 608.31,-358.53"/>
</g>
<!-- numpy&#45;&gt;bidexdiffuser_test_dp_agent_zmq -->
<g id="edge27" class="edge">
<title>numpy&#45;&gt;bidexdiffuser_test_dp_agent_zmq</title><style>.edge>path:hover{stroke-width:8}</style>
<path fill="none" stroke="black" d="M448.11,-510.3C439.49,-478.86 420.84,-410.85 410,-371.31"/>
<polygon fill="#06f932" stroke="black" points="413.31,-370.16 407.29,-361.44 406.56,-372.01 413.31,-370.16"/>
</g>
<!-- numpy&#45;&gt;cv2 -->
<g id="edge28" class="edge">
<title>numpy&#45;&gt;cv2</title><style>.edge>path:hover{stroke-width:8}</style>
<path fill="none" stroke="black" d="M482.19,-525.76C593.13,-520.34 985.32,-498.46 1101.73,-455.36 1107.43,-453.25 1113.09,-450.18 1118.31,-446.84"/>
<polygon fill="#06f932" stroke="black" points="1120.39,-449.66 1126.61,-441.08 1116.4,-443.91 1120.39,-449.66"/>
</g>
<!-- numpy&#45;&gt;dm_control_utils_inverse_kinematics -->
<g id="edge29" class="edge">
<title>numpy&#45;&gt;dm_control_utils_inverse_kinematics</title><style>.edge>path:hover{stroke-width:8}</style>
<path fill="none" stroke="black" d="M440.13,-511.8C433.34,-504.53 424.38,-496.36 414.73,-491.36 333.36,-449.21 253.18,-512.28 218.73,-427.37"/>
</g>
<!-- quaternion -->
<g id="node28" class="node">
<title>quaternion</title><style>.edge>path:hover{stroke-width:8}</style>
<ellipse fill="#26a8d9" stroke="black" cx="717.73" cy="-426.37" rx="40.74" ry="18"/>
<text text-anchor="middle" x="717.73" y="-423.87" font-family="Helvetica,sans-Serif" font-size="10.00" fill="#000000">quaternion</text>
</g>
<!-- numpy&#45;&gt;quaternion -->
<g id="edge30" class="edge">
<title>numpy&#45;&gt;quaternion</title><style>.edge>path:hover{stroke-width:8}</style>
<path fill="none" stroke="black" d="M478.71,-519.55C518.82,-507.56 597.97,-482.74 662.73,-455.36 669.72,-452.4 677.05,-448.94 684,-445.48"/>
<polygon fill="#06f932" stroke="black" points="685.85,-448.46 693.17,-440.8 682.67,-442.23 685.85,-448.46"/>
</g>
<!-- pynput -->
<g id="node26" class="node">
<title>pynput</title><style>.edge>path:hover{stroke-width:8}</style>
<ellipse fill="#31c49c" stroke="black" cx="1627.73" cy="-426.37" rx="29.37" ry="18"/>
<text text-anchor="middle" x="1627.73" y="-423.87" font-family="Helvetica,sans-Serif" font-size="10.00" fill="#000000">pynput</text>
</g>
<!-- pynput&#45;&gt;bidexdiffuser_run_env -->
<g id="edge31" class="edge">
<title>pynput&#45;&gt;bidexdiffuser_run_env</title><style>.edge>path:hover{stroke-width:8}</style>
<path fill="none" stroke="black" d="M1646.65,-412.32C1666.67,-396.75 1694.17,-369.28 1684.73,-341.16"/>
<path fill="none" stroke="black" d="M1684.73,-339.16C1678.45,-320.46 1636.18,-294.56 1602.51,-276.45"/>
<polygon fill="#31c49c" stroke="black" points="1603.76,-273.14 1593.28,-271.55 1600.48,-279.33 1603.76,-273.14"/>
</g>
<!-- pynput_keyboard -->
<g id="node27" class="node">
<title>pynput_keyboard</title><style>.edge>path:hover{stroke-width:8}</style>
<ellipse fill="#40c09d" stroke="black" cx="1655.73" cy="-528.13" rx="43.68" ry="21.43"/>
<text text-anchor="middle" x="1655.73" y="-531.13" font-family="Helvetica,sans-Serif" font-size="10.00" fill="#000000">pynput.</text>
<text text-anchor="middle" x="1655.73" y="-520.13" font-family="Helvetica,sans-Serif" font-size="10.00" fill="#000000">keyboard</text>
</g>
<!-- pynput_keyboard&#45;&gt;bidexdiffuser_run_env -->
<g id="edge32" class="edge">
<title>pynput_keyboard&#45;&gt;bidexdiffuser_run_env</title><style>.edge>path:hover{stroke-width:8}</style>
<path fill="none" stroke="black" d="M1664.8,-507.34C1679.34,-472.78 1704.33,-399.55 1684.73,-341.16"/>
</g>
<!-- pynput_keyboard&#45;&gt;pynput -->
<g id="edge33" class="edge">
<title>pynput_keyboard&#45;&gt;pynput</title><style>.edge>path:hover{stroke-width:8}</style>
<path fill="none" stroke="black" d="M1650.06,-506.94C1645.78,-491.66 1639.85,-470.54 1635.18,-453.9"/>
<polygon fill="#40c09d" stroke="black" points="1638.53,-452.89 1632.46,-444.21 1631.79,-454.79 1638.53,-452.89"/>
</g>
<!-- quaternion&#45;&gt;bidexdiffuser_agents_dp_agent -->
<g id="edge34" class="edge">
<title>quaternion&#45;&gt;bidexdiffuser_agents_dp_agent</title><style>.edge>path:hover{stroke-width:8}</style>
<path fill="none" stroke="black" d="M715.72,-408.23C712.64,-389.4 705.04,-359.42 686.73,-341.16"/>
<path fill="none" stroke="black" d="M686.73,-339.16C568.01,-220.79 457.64,-368.94 313.73,-282.95 300.82,-275.24 300.28,-268.93 294.73,-254.96"/>
</g>
<!-- quaternion&#45;&gt;bidexdiffuser_agents_dp_agent_zmq -->
<g id="edge35" class="edge">
<title>quaternion&#45;&gt;bidexdiffuser_agents_dp_agent_zmq</title><style>.edge>path:hover{stroke-width:8}</style>
<path fill="none" stroke="black" d="M594.73,-252.96C586.53,-236.04 580.12,-216.2 575.52,-199.29"/>
<polygon fill="#26a8d9" stroke="black" points="578.8,-197.99 572.89,-189.19 572.03,-199.75 578.8,-197.99"/>
</g>
<!-- quaternion&#45;&gt;bidexdiffuser_agents_quest_agent -->
<g id="edge36" class="edge">
<title>quaternion&#45;&gt;bidexdiffuser_agents_quest_agent</title><style>.edge>path:hover{stroke-width:8}</style>
<path fill="none" stroke="black" d="M686.73,-339.16C647.48,-300.03 618.91,-304.83 594.73,-254.96"/>
<path fill="none" stroke="black" d="M594.73,-252.96C565.72,-193.12 477.44,-227.47 476.73,-160.97"/>
</g>
<!-- quaternion&#45;&gt;bidexdiffuser_agents_quest_agent_eef -->
<g id="edge37" class="edge">
<title>quaternion&#45;&gt;bidexdiffuser_agents_quest_agent_eef</title><style>.edge>path:hover{stroke-width:8}</style>
<path fill="none" stroke="black" d="M594.73,-252.96C586.28,-235.52 627.22,-208.02 663.92,-187.63"/>
<polygon fill="#26a8d9" stroke="black" points="666.03,-190.47 673.13,-182.61 662.67,-184.32 666.03,-190.47"/>
</g>
<!-- termcolor -->
<g id="node29" class="node">
<title>termcolor</title><style>.edge>path:hover{stroke-width:8}</style>
<ellipse fill="#334fcc" stroke="black" cx="1225.73" cy="-426.37" rx="37.85" ry="18"/>
<text text-anchor="middle" x="1225.73" y="-423.87" font-family="Helvetica,sans-Serif" font-size="10.00" fill="#ffffff">termcolor</text>
</g>
<!-- termcolor&#45;&gt;bidexdiffuser_run_env -->
<g id="edge38" class="edge">
<title>termcolor&#45;&gt;bidexdiffuser_run_env</title><style>.edge>path:hover{stroke-width:8}</style>
<path fill="none" stroke="black" d="M1220.17,-408.53C1215.18,-389.97 1210.72,-360.23 1225.73,-341.16"/>
</g>
<!-- termcolor&#45;&gt;bidexdiffuser_run_openloop -->
<g id="edge39" class="edge">
<title>termcolor&#45;&gt;bidexdiffuser_run_openloop</title><style>.edge>path:hover{stroke-width:8}</style>
<path fill="none" stroke="black" d="M1221.68,-408.32C1218.7,-395.46 1214.68,-377.37 1211.73,-361.37 1207.04,-335.91 1202.74,-306.83 1199.78,-285.51"/>
<polygon fill="#334fcc" stroke="black" points="1203.22,-284.86 1198.4,-275.42 1196.29,-285.81 1203.22,-284.86"/>
</g>
<!-- torch -->
<g id="node30" class="node">
<title>torch</title><style>.edge>path:hover{stroke-width:8}</style>
<ellipse fill="#6419e6" stroke="black" cx="378.73" cy="-528.13" rx="27" ry="18"/>
<text text-anchor="middle" x="378.73" y="-525.63" font-family="Helvetica,sans-Serif" font-size="10.00" fill="#ffffff">torch</text>
</g>
<!-- torch&#45;&gt;bidexdiffuser_agents_dp_agent -->
<g id="edge40" class="edge">
<title>torch&#45;&gt;bidexdiffuser_agents_dp_agent</title><style>.edge>path:hover{stroke-width:8}</style>
<path fill="none" stroke="black" d="M380.48,-510.03C382.12,-490.05 383.65,-456.04 378.73,-427.37"/>
<path fill="none" stroke="black" d="M378.73,-425.37C369.79,-373.27 289.02,-393.71 294.73,-341.16"/>
<path fill="none" stroke="black" d="M294.73,-339.16C298.77,-301.96 308.55,-289.74 294.73,-254.96"/>
<path fill="none" stroke="black" d="M294.73,-252.96C286.69,-232.73 297.03,-211.2 310.25,-194.05"/>
<polygon fill="#6419e6" stroke="black" points="313.22,-195.95 316.9,-186.02 307.83,-191.49 313.22,-195.95"/>
</g>
<!-- torch&#45;&gt;bidexdiffuser_agents_dp_agent_zmq -->
<g id="edge41" class="edge">
<title>torch&#45;&gt;bidexdiffuser_agents_dp_agent_zmq</title><style>.edge>path:hover{stroke-width:8}</style>
<path fill="none" stroke="black" d="M294.73,-339.16C296.06,-326.9 302.84,-324.73 313.73,-318.95 402.8,-271.69 463.84,-351.56 537.73,-282.95 560.5,-261.8 566.89,-226.31 568.09,-199.05"/>
<polygon fill="#6419e6" stroke="black" points="571.59,-199.13 568.32,-189.05 564.59,-198.96 571.59,-199.13"/>
</g>
<!-- torch&#45;&gt;bidexdiffuser_test_dp_agent -->
<g id="edge42" class="edge">
<title>torch&#45;&gt;bidexdiffuser_test_dp_agent</title><style>.edge>path:hover{stroke-width:8}</style>
<path fill="none" stroke="black" d="M392.93,-512.53C423.25,-481.39 494.68,-408 533.5,-368.11"/>
<polygon fill="#6419e6" stroke="black" points="536.34,-370.21 540.81,-360.6 531.33,-365.33 536.34,-370.21"/>
</g>
<!-- torch&#45;&gt;bidexdiffuser_test_dp_agent_zmq -->
<g id="edge43" class="edge">
<title>torch&#45;&gt;bidexdiffuser_test_dp_agent_zmq</title><style>.edge>path:hover{stroke-width:8}</style>
<path fill="none" stroke="black" d="M378.73,-425.37C375.57,-406.94 380.8,-386.71 387.06,-370.7"/>
<polygon fill="#6419e6" stroke="black" points="390.35,-371.91 391.03,-361.33 383.91,-369.17 390.35,-371.91"/>
</g>
<!-- tyro -->
<g id="node31" class="node">
<title>tyro</title><style>.edge>path:hover{stroke-width:8}</style>
<ellipse fill="#d319e6" stroke="black" cx="1739.73" cy="-426.37" rx="27" ry="18"/>
<text text-anchor="middle" x="1739.73" y="-423.87" font-family="Helvetica,sans-Serif" font-size="10.00" fill="#ffffff">tyro</text>
</g>
<!-- tyro&#45;&gt;bidexdiffuser_launch_inference_nodes -->
<g id="edge44" class="edge">
<title>tyro&#45;&gt;bidexdiffuser_launch_inference_nodes</title><style>.edge>path:hover{stroke-width:8}</style>
<path fill="none" stroke="black" d="M1731.73,-339.16C1722.05,-323.23 1722.02,-302.27 1724.42,-285.25"/>
<polygon fill="#d319e6" stroke="black" points="1727.89,-285.7 1726.16,-275.24 1721,-284.49 1727.89,-285.7"/>
</g>
<!-- tyro&#45;&gt;bidexdiffuser_launch_nodes -->
<g id="edge45" class="edge">
<title>tyro&#45;&gt;bidexdiffuser_launch_nodes</title><style>.edge>path:hover{stroke-width:8}</style>
<path fill="none" stroke="black" d="M1731.73,-339.16C1728.05,-333.11 1805.47,-297.81 1857.66,-274.88"/>
<polygon fill="#d319e6" stroke="black" points="1859.33,-277.97 1867.09,-270.75 1856.52,-271.55 1859.33,-277.97"/>
</g>
<!-- tyro&#45;&gt;bidexdiffuser_run_env -->
<g id="edge46" class="edge">
<title>tyro&#45;&gt;bidexdiffuser_run_env</title><style>.edge>path:hover{stroke-width:8}</style>
<path fill="none" stroke="black" d="M1731.73,-339.16C1724.59,-327.41 1654.82,-295.67 1606.37,-274.69"/>
<polygon fill="#d319e6" stroke="black" points="1607.56,-271.39 1596.99,-270.65 1604.79,-277.82 1607.56,-271.39"/>
</g>
<!-- tyro&#45;&gt;bidexdiffuser_run_openloop -->
<g id="edge47" class="edge">
<title>tyro&#45;&gt;bidexdiffuser_run_openloop</title><style>.edge>path:hover{stroke-width:8}</style>
<path fill="none" stroke="black" d="M1742.25,-408.2C1744,-390.16 1744.16,-361.62 1731.73,-341.16"/>
<path fill="none" stroke="black" d="M1731.73,-339.16C1715.8,-312.94 1695.69,-325.53 1665.73,-318.95 1524.05,-287.82 1354.82,-269.23 1263.04,-260.67"/>
<polygon fill="#d319e6" stroke="black" points="1263.33,-257.18 1253.05,-259.74 1262.68,-264.15 1263.33,-257.18"/>
</g>
<!-- zmq -->
<g id="node32" class="node">
<title>zmq</title><style>.edge>path:hover{stroke-width:8}</style>
<ellipse fill="#d92688" stroke="black" cx="1460.73" cy="-528.13" rx="27" ry="18"/>
<text text-anchor="middle" x="1460.73" y="-525.63" font-family="Helvetica,sans-Serif" font-size="10.00" fill="#ffffff">zmq</text>
</g>
<!-- zmq&#45;&gt;bidexdiffuser_camera_node -->
<g id="edge48" class="edge">
<title>zmq&#45;&gt;bidexdiffuser_camera_node</title><style>.edge>path:hover{stroke-width:8}</style>
<path fill="none" stroke="black" d="M1460.73,-425.37C1460.56,-407.67 1460.55,-387.88 1460.59,-371.93"/>
<polygon fill="#d92688" stroke="black" points="1464.09,-371.59 1460.62,-361.58 1457.09,-371.57 1464.09,-371.59"/>
</g>
<!-- zmq&#45;&gt;bidexdiffuser_inference_node -->
<g id="edge49" class="edge">
<title>zmq&#45;&gt;bidexdiffuser_inference_node</title><style>.edge>path:hover{stroke-width:8}</style>
<path fill="none" stroke="black" d="M1460.83,-509.83C1460.92,-489.93 1461.01,-456.29 1460.73,-427.37"/>
<path fill="none" stroke="black" d="M1460.73,-425.37C1460.52,-403.5 1410.09,-377.78 1369.4,-360.57"/>
<polygon fill="#d92688" stroke="black" points="1370.67,-357.31 1360.1,-356.71 1367.99,-363.77 1370.67,-357.31"/>
</g>
<!-- zmq&#45;&gt;bidexdiffuser_robot_node -->
<g id="edge50" class="edge">
<title>zmq&#45;&gt;bidexdiffuser_robot_node</title><style>.edge>path:hover{stroke-width:8}</style>
<path fill="none" stroke="black" d="M1460.73,-425.37C1460.52,-403.85 1510.23,-377.72 1549.83,-360.33"/>
<polygon fill="#d92688" stroke="black" points="1551.32,-363.49 1559.12,-356.32 1548.55,-357.06 1551.32,-363.49"/>
</g>
</g>
</svg>
